HIERARCHY
ROOT hip
{
  OFFSET 0 0 0
  CHANNELS 6 Xposition Yposition Zposition Zrotation Yrotation Xrotation
  JOINT abdomen
  {
    OFFSET 0 20.6881 -0.73152
    CHANNELS 3 Zrotation Xrotation Yrotation
    JOINT chest
    {
      OFFSET 0 11.7043 -0.48768
      CHANNELS 3 Zrotation Xrotation Yrotation
      JOINT neck
      {
        OFFSET 0 22.1894 -2.19456
        CHANNELS 3 Zrotation Xrotation Yrotation
        JOINT head
        {
          OFFSET -0.24384 7.07133 1.2192
          CHANNELS 3 Zrotation Xrotation Yrotation
          JOINT leftEye
          {
            OFFSET 4.14528 8.04674 8.04672
            CHANNELS 3 Zrotation Xrotation Yrotation
            End Site
            {
              OFFSET 1 0 0
            }
          }
          JOINT rightEye
          {
            OFFSET -3.6576 8.04674 8.04672
            CHANNELS 3 Zrotation Xrotation Yrotation
            End Site
            {
              OFFSET 1 0 0
            }
          }
        }
      }
      JOINT rCollar
      {
        OFFSET -2.68224 19.2634 -4.8768
        CHANNELS 3 Zrotation Xrotation Yrotation
        JOINT rShldr
        {
          OFFSET -8.77824 -1.95073 1.46304
          CHANNELS 3 Zrotation Xrotation Yrotation
          JOINT rForeArm
          {
            OFFSET -28.1742 -1.7115 0.48768
            CHANNELS 3 Zrotation Xrotation Yrotation
            JOINT rHand
            {
              OFFSET -22.5879 0.773209 7.07136
              CHANNELS 3 Zrotation Xrotation Yrotation
              JOINT rThumb1
              {
                OFFSET -1.2192 -0.487915 3.41376
                CHANNELS 3 Zrotation Xrotation Yrotation
                JOINT rThumb2
                {
                  OFFSET -3.37035 -0.52449 3.41376
                  CHANNELS 3 Zrotation Xrotation Yrotation
                  End Site
                  {
                    OFFSET -1.78271 -1.18214 1.43049
                  }
                }
              }
              JOINT rIndex1
              {
                OFFSET -7.75947 0.938293 5.60832
                CHANNELS 3 Zrotation Xrotation Yrotation
                JOINT rIndex2
                {
                  OFFSET -2.54057 -0.884171 1.56538
                  CHANNELS 3 Zrotation Xrotation Yrotation
                  End Site
                  {
                    OFFSET -1.62519 -0.234802 1.16502
                  }
                }
              }
              JOINT rMid1
              {
                OFFSET -8.24714 1.18213 3.41376
                CHANNELS 3 Zrotation Xrotation Yrotation
                JOINT rMid2
                {
                  OFFSET -3.10165 -0.590103 1.0647
                  CHANNELS 3 Zrotation Xrotation Yrotation
                  End Site
                  {
                    OFFSET -2.48547 -0.328903 0.83742
                  }
                }
              }
              JOINT rRing1
              {
                OFFSET -8.82822 0.546677 1.51678
                CHANNELS 3 Zrotation Xrotation Yrotation
                JOINT rRing2
                {
                  OFFSET -2.60934 -0.819778 -0.0198488
                  CHANNELS 3 Zrotation Xrotation Yrotation
                  End Site
                  {
                    OFFSET -2.33842 -0.294052 0.168128
                  }
                }
              }
              JOINT rPinky1
              {
                OFFSET -8.27202 -0.0477905 -0.4584
                CHANNELS 3 Zrotation Xrotation Yrotation
                JOINT rPinky2
                {
                  OFFSET -1.82734 -0.647385 -0.700984
                  CHANNELS 3 Zrotation Xrotation Yrotation
                  End Site
                  {
                    OFFSET -1.69225 -0.51767 -0.607171
                  }
                }
              }
            }
          }
        }
      }
      JOINT lCollar
      {
        OFFSET 2.68224 19.2634 -4.8768
        CHANNELS 3 Zrotation Xrotation Yrotation
        JOINT lShldr
        {
          OFFSET 8.77824 -1.95073 1.46304
          CHANNELS 3 Zrotation Xrotation Yrotation
          JOINT lForeArm
          {
            OFFSET 28.1742 -1.7115 0.48768
            CHANNELS 3 Zrotation Xrotation Yrotation
            JOINT lHand
            {
              OFFSET 22.5879 0.773209 7.07136
              CHANNELS 3 Zrotation Xrotation Yrotation
              JOINT lThumb1
              {
                OFFSET 1.2192 -0.487915 3.41376
                CHANNELS 3 Zrotation Xrotation Yrotation
                JOINT lThumb2
                {
                  OFFSET 3.37035 -0.52449 3.41376
                  CHANNELS 3 Zrotation Xrotation Yrotation
                  End Site
                  {
                    OFFSET 1.78271 -1.18214 1.43049
                  }
                }
              }
              JOINT lIndex1
              {
                OFFSET 7.75947 0.938293 5.60832
                CHANNELS 3 Zrotation Xrotation Yrotation
                JOINT lIndex2
                {
                  OFFSET 2.54057 -0.884171 1.56538
                  CHANNELS 3 Zrotation Xrotation Yrotation
                  End Site
                  {
                    OFFSET 1.62519 -0.234802 1.16502
                  }
                }
              }
              JOINT lMid1
              {
                OFFSET 8.24714 1.18213 3.41376
                CHANNELS 3 Zrotation Xrotation Yrotation
                JOINT lMid2
                {
                  OFFSET 3.10165 -0.590103 1.0647
                  CHANNELS 3 Zrotation Xrotation Yrotation
                  End Site
                  {
                    OFFSET 2.48547 -0.328903 0.83742
                  }
                }
              }
              JOINT lRing1
              {
                OFFSET 8.82822 0.546677 1.51678
                CHANNELS 3 Zrotation Xrotation Yrotation
                JOINT lRing2
                {
                  OFFSET 2.60934 -0.819778 -0.0198488
                  CHANNELS 3 Zrotation Xrotation Yrotation
                  End Site
                  {
                    OFFSET 2.33842 -0.294052 0.168128
                  }
                }
              }
              JOINT lPinky1
              {
                OFFSET 8.27202 -0.0477905 -0.4584
                CHANNELS 3 Zrotation Xrotation Yrotation
                JOINT lPinky2
                {
                  OFFSET 1.82734 -0.647385 -0.700984
                  CHANNELS 3 Zrotation Xrotation Yrotation
                  End Site
                  {
                    OFFSET 1.69225 -0.51767 -0.607171
                  }
                }
              }
            }
          }
        }
      }
    }
  }
  JOINT rButtock
  {
    OFFSET -8.77824 4.35084 1.2192
    CHANNELS 3 Zrotation Xrotation Yrotation
    JOINT rThigh
    {
      OFFSET 0 -1.70687 -2.19456
      CHANNELS 3 Zrotation Xrotation Yrotation
      JOINT rShin
      {
        OFFSET 0 -36.8199 0.73152
        CHANNELS 3 Zrotation Xrotation Yrotation
        JOINT rFoot
        {
          OFFSET 0.73152 -45.1104 -5.12064
          CHANNELS 3 Zrotation Xrotation Yrotation
          End Site
          {
            OFFSET -1.1221 -3.69964 12.103
          }
        }
      }
    }
  }
  JOINT lButtock
  {
    OFFSET 8.77824 4.35084 1.2192
    CHANNELS 3 Zrotation Xrotation Yrotation
    JOINT lThigh
    {
      OFFSET 0 -1.70687 -2.19456
      CHANNELS 3 Zrotation Xrotation Yrotation
      JOINT lShin
      {
        OFFSET 0 -36.8199 0.73152
        CHANNELS 3 Zrotation Xrotation Yrotation
        JOINT lFoot
        {
          OFFSET -0.73152 -45.1104 -5.12064
          CHANNELS 3 Zrotation Xrotation Yrotation
          End Site
          {
            OFFSET 1.1221 -3.69964 12.103
          }
        }
      }
    }
  }
}
MOTION
Frames:	6
Frame Time:	0.00833333
-213.823 84.0179 -7.77839 0.0 0.0 0.0 -1.65551 -0.00357568 -0.0452724 -0.4571 0.000154948 -0.0791639 -2.88884e-14 0.0 -2.23633e-16 -8.66328e-14 3.18055e-15 -5.9946e-16 -0.0 0.0 0.0 -0.0 0.0 0.0 -1.4265e-14 -6.27026e-17 1.49089e-16 -3.01852e-13 -1.26725e-15 -2.18663e-15 -5.21805e-12 1.51951e-12 4.77083e-14 -5.9686e-11 -1.79269e-12 -4.77083e-13 -1.40793e-10 -5.93318e-13 -9.09639e-13 -2.43155e-10 -1.02096e-12 -1.5704e-12 -1.40788e-10 -5.91186e-13 -9.16e-13 7.73091 5.47488 0.417314 -1.40794e-10 -5.93571e-13 -9.12819e-13 2.90554 0.965183 0.102902 -1.40791e-10 -5.93372e-13 -9.10434e-13 10.2786 0.731801 0.0259123 -1.40797e-10 -5.89993e-13 -9.03278e-13 2.22167 -0.733487 -0.20892 -1.44604e-14 -6.25085e-17 -2.98177e-16 -3.0462e-13 -1.16786e-15 -3.37934e-15 -5.21666e-12 -1.6034e-12 -3.18055e-15 -5.97031e-11 1.33663e-12 -4.0393e-13 -1.40821e-10 -5.81512e-13 -9.06458e-13 -2.43189e-10 -1.00824e-12 -1.56086e-12 -1.40825e-10 -5.80849e-13 -8.93736e-13 -7.73091 5.47488 -0.417314 -1.40821e-10 -5.81545e-13 -9.06458e-13 -2.90554 0.965183 -0.102902 -1.40829e-10 -5.81644e-13 -9.08048e-13 -10.2786 0.731801 -0.0259123 -1.40812e-10 -5.77668e-13 -9.16e-13 -2.22167 -0.733487 0.20892 -2.03217e-16 0.0 -3.88251e-19 -0.803393 -1.9234 -0.00371771 -0.00881888 -2.07862 -0.072575 -0.452083 3.99778 0.131439 2.03217e-16 0.0 3.88251e-19 -1.71756 -6.77988 0.164468 -0.00322864 6.71846 -0.084076 0.482087 0.0572829 -0.0558943
-208.747 82.8464 -11.5981 -15.5768 78.0898 -13.1399 -0.252541 6.07141 -0.928968 0.32514 -0.555602 -0.201509 0.585377 3.45341 1.09404 -2.67629 -11.9412 1.28026 -0.0 0.0 0.0 -0.0 0.0 0.0 -4.08844e-14 1.71549e-13 -1.61648e-14 18.6616 10.8984 -1.25169 -8.29135 -5.19613 11.0283 0.000608794 0.547313 0.0769071 1.37473e-10 4.87081e-10 -2.33631e-10 2.38552e-10 8.41201e-10 -4.02709e-10 1.37478e-10 4.87082e-10 -2.33638e-10 7.73091 5.47488 0.417314 1.37472e-10 4.8708e-10 -2.33633e-10 2.90554 0.965183 0.102902 1.37476e-10 4.8708e-10 -2.33632e-10 10.2786 0.731801 0.0259123 1.37469e-10 4.87084e-10 -2.33623e-10 2.22167 -0.733487 -0.20892 -4.1065e-14 1.71543e-13 -1.65554e-14 -21.8217 7.78509 2.64459 8.87921 -5.75376 -11.5024 -0.00132323 -0.806944 0.113368 -1.23257e-10 8.19811e-11 3.69148e-10 -2.15155e-10 1.41595e-10 6.35379e-10 -1.23259e-10 8.19838e-11 3.69159e-10 -7.73091 5.47488 -0.417314 -1.23256e-10 8.19828e-11 3.69149e-10 -2.90554 0.965183 -0.102902 -1.23265e-10 8.19838e-11 3.69148e-10 -10.2786 0.731801 -0.0259123 -1.23251e-10 8.19861e-11 3.6914e-10 -2.22167 -0.733487 0.20892 -2.03217e-16 0.0 -3.88251e-19 0.674816 -2.28416 3.54815 0.00365815 3.63174 0.0480482 -0.818379 -1.95074 -2.70074 2.03217e-16 0.0 3.88251e-19 1.02358 -12.2166 -1.08721 0.0331775 14.2724 -0.153901 0.051185 -1.83327 -3.71108
-208.757 82.8165 -11.603 -15.619 78.1174 -13.1379 1.4296 12.4861 -1.89428 1.14877 -1.14269 -0.330713 1.05654 7.09246 2.26209 -4.86554 -24.5261 2.83276 -0.0 0.0 0.0 -0.0 0.0 0.0 -6.96151e-14 3.4723e-13 -3.11626e-14 38.9462 22.4066 -2.7331 -14.9096 -10.0441 22.9636 -0.000345472 1.12579 0.158217 4.37078e-10 1.00452e-09 -4.78846e-10 7.57189e-10 1.73479e-09 -8.25351e-10 4.37081e-10 1.00451e-09 -4.78852e-10 7.73091 5.47488 0.417314 4.37075e-10 1.00451e-09 -4.78845e-10 2.90554 0.965183 0.102902 4.37081e-10 1.00451e-09 -4.78847e-10 10.2786 0.731801 0.0259123 4.37072e-10 1.00452e-09 -4.78835e-10 2.22167 -0.733487 -0.20892 -6.9781e-14 3.47219e-13 -3.14918e-14 -45.6984 15.9534 5.60455 15.783 -11.0559 -24.0115 0.000750727 -1.65904 0.233156 -1.01495e-10 1.69657e-10 7.64304e-10 -1.80012e-10 2.93028e-10 1.31554e-09 -1.01494e-10 1.69662e-10 7.64313e-10 -7.73091 5.47488 -0.417314 -1.01494e-10 1.6966e-10 7.64305e-10 -2.90554 0.965183 -0.102902 -1.01502e-10 1.69662e-10 7.64305e-10 -10.2786 0.731801 -0.0259123 -1.01491e-10 1.69663e-10 7.64296e-10 -2.22167 -0.733487 0.20892 -2.03217e-16 0.0 -3.88251e-19 2.27946 -2.64642 7.3092 -0.00959871 9.66294 0.177681 -1.84905 -8.20322 -5.7493 2.03217e-16 0.0 3.88251e-19 3.64346 -17.9389 -2.47983 0.0933058 22.2429 -0.235879 -0.665288 -3.81071 -7.5808
-208.765 82.7758 -11.6051 -15.7962 78.1646 -13.2744 3.14083 18.2031 -2.82206 1.8825 -1.66708 -0.446358 1.35516 10.345 3.33037 -6.11431 -35.7435 4.63144 -0.0 0.0 0.0 -0.0 0.0 0.0 -9.41232e-14 5.14771e-13 -4.87927e-14 57.6394 32.6267 -4.37946 -19.1126 -13.2745 33.9727 -0.00258303 1.64193 0.230806 6.94006e-10 1.46243e-09 -6.99075e-10 1.20197e-09 2.52564e-09 -1.20499e-09 6.94009e-10 1.46243e-09 -6.99081e-10 7.73091 5.47488 0.417314 6.94003e-10 1.46243e-09 -6.99073e-10 2.90554 0.965183 0.102902 6.94011e-10 1.46243e-09 -6.99076e-10 10.2786 0.731801 0.0259123 6.93999e-10 1.46243e-09 -6.99063e-10 2.22167 -0.733487 -0.20892 -9.42741e-14 5.14755e-13 -4.90699e-14 -67.7733 23.1473 8.55374 19.9932 -14.4697 -35.6229 0.00561748 -2.42079 0.340374 -8.81292e-11 2.47106e-10 1.10926e-09 -1.59088e-10 4.26801e-10 1.90926e-09 -8.81259e-11 2.47113e-10 1.10926e-09 -7.73091 5.47488 -0.417314 -8.8128e-11 2.47111e-10 1.10926e-09 -2.90554 0.965183 -0.102902 -8.81365e-11 2.47115e-10 1.10926e-09 -10.2786 0.731801 -0.0259123 -8.81284e-11 2.47114e-10 1.10925e-09 -2.22167 -0.733487 0.20892 -2.03217e-16 0.0 -3.88251e-19 3.76427 -2.96684 10.6579 -0.0452183 15.0523 0.299175 -3.34687 -13.7042 -8.60656 2.03217e-16 0.0 3.88251e-19 5.7375 -23.0504 -3.81977 0.169738 29.38 -0.321852 -1.53218 -5.52195 -11.0678
-208.78 82.7379 -11.6051 -16.0392 78.2062 -13.4451 4.50525 22.1928 -3.53832 2.39646 -2.03473 -0.527959 1.50479 12.6455 4.10402 -6.42979 -43.6161 6.33087 -0.0 0.0 0.0 -0.0 0.0 0.0 -1.08075e-13 6.61962e-13 -7.30037e-14 71.1271 39.6898 -5.85996 -21.2537 -14.6753 41.8178 -0.00491921 2.00221 0.281509 8.44245e-10 1.77155e-09 -8.56841e-10 1.4621e-09 3.05965e-09 -1.4771e-09 8.44246e-10 1.77155e-09 -8.56848e-10 7.73091 5.47488 0.417314 8.44241e-10 1.77155e-09 -8.56838e-10 2.90554 0.965183 0.102902 8.44249e-10 1.77155e-09 -8.56842e-10 10.2786 0.731801 0.0259123 8.44238e-10 1.77155e-09 -8.56829e-10 2.22167 -0.733487 -0.20892 -1.0821e-13 6.61943e-13 -7.32521e-14 -83.6697 28.1011 10.8918 22.05 -15.8327 -43.925 0.0107339 -2.95672 0.415912 -9.57562e-11 2.98991e-10 1.32871e-09 -1.73712e-10 5.16423e-10 2.28686e-09 -9.57518e-11 2.99e-10 1.32871e-09 -7.73091 5.47488 -0.417314 -9.57533e-11 2.98997e-10 1.32871e-09 -2.90554 0.965183 -0.102902 -9.57632e-11 2.99001e-10 1.32871e-09 -10.2786 0.731801 -0.0259123 -9.57572e-11 2.98999e-10 1.3287e-09 -2.22167 -0.733487 0.20892 -2.03217e-16 0.0 -3.88251e-19 4.85997 -3.21366 12.9713 -0.0843386 18.8372 0.389897 -4.73436 -17.4707 -10.7255 2.03217e-16 0.0 3.88251e-19 7.07285 -26.6705 -4.83111 0.240047 34.4334 -0.394008 -2.26635 -6.65539 -13.5532
-208.801 82.6943 -11.6085 -16.8292 78.2195 -14.1466 5.17547 23.777 -3.87002 2.60467 -2.18315 -0.562029 1.57002 13.6255 4.43455 -6.41021 -46.8775 7.18294 -0.0 0.0 0.0 -0.0 0.0 0.0 -1.01434e-13 8.02698e-13 -1.21408e-13 76.5408 42.3929 -6.56778 -21.9544 -15.0043 44.9137 -0.00600813 2.14337 0.301382 8.10994e-10 1.88175e-09 -9.46511e-10 1.40479e-09 3.25039e-09 -1.63218e-09 8.10995e-10 1.88175e-09 -9.46518e-10 7.73091 5.47488 0.417314 8.1099e-10 1.88175e-09 -9.46508e-10 2.90554 0.965183 0.102902 8.10998e-10 1.88175e-09 -9.46512e-10 10.2786 0.731801 0.0259123 8.10986e-10 1.88175e-09 -9.465e-10 2.22167 -0.733487 -0.20892 -1.01551e-13 8.02682e-13 -1.21666e-13 -90.0402 30.0714 11.9181 22.7163 -16.1162 -47.2253 0.0132022 -3.1762 0.446878 -1.71611e-10 3.19709e-10 1.35492e-09 -3.05154e-10 5.52184e-10 2.33145e-09 -1.71607e-10 3.19718e-10 1.35493e-09 -7.73091 5.47488 -0.417314 -1.71604e-10 3.19716e-10 1.35492e-09 -2.90554 0.965183 -0.102902 -1.71617e-10 3.19719e-10 1.35493e-09 -10.2786 0.731801 -0.0259123 -1.71613e-10 3.19717e-10 1.35492e-09 -2.22167 -0.733487 0.20892 -2.03217e-16 0.0 -3.88251e-19 5.37019 -3.3761 13.8347 -0.10317 20.3768 0.428811 -5.36116 -18.9196 -11.6006 2.03217e-16 0.0 3.88251e-19 7.62468 -28.2261 -5.24433 0.275039 36.5656 -0.429291 -2.58939 -7.03031 -14.6106
